<mxfile host="app.diagrams.net" agent="Mozilla/5.0 (Macintosh; Intel Mac OS X 10_15_7) AppleWebKit/537.36 (KHTML, like Gecko) Chrome/135.0.0.0 Safari/537.36" version="26.2.13">
  <diagram name="Page-1" id="-47OWS4oEtXfuUWjz8DK">
    <mxGraphModel dx="1515" dy="999" grid="1" gridSize="10" guides="1" tooltips="1" connect="1" arrows="1" fold="1" page="0" pageScale="1" pageWidth="850" pageHeight="1100" math="0" shadow="0">
      <root>
        <mxCell id="0" />
        <mxCell id="1" parent="0" />
        <mxCell id="yIb0rFLzXjiDQs9UU3_U-18" value="DB&lt;div&gt;&lt;br&gt;&lt;/div&gt;" style="shape=cylinder3;whiteSpace=wrap;html=1;boundedLbl=1;backgroundOutline=1;size=15;" vertex="1" parent="1">
          <mxGeometry x="240" y="-255" width="60" height="90" as="geometry" />
        </mxCell>
        <mxCell id="yIb0rFLzXjiDQs9UU3_U-20" value="REDIS" style="strokeWidth=2;html=1;shape=mxgraph.flowchart.direct_data;whiteSpace=wrap;" vertex="1" parent="1">
          <mxGeometry x="500" y="270" width="100" height="60" as="geometry" />
        </mxCell>
        <mxCell id="yIb0rFLzXjiDQs9UU3_U-27" style="edgeStyle=orthogonalEdgeStyle;rounded=0;orthogonalLoop=1;jettySize=auto;html=1;" edge="1" parent="1" source="yIb0rFLzXjiDQs9UU3_U-21" target="yIb0rFLzXjiDQs9UU3_U-18">
          <mxGeometry relative="1" as="geometry" />
        </mxCell>
        <mxCell id="yIb0rFLzXjiDQs9UU3_U-21" value="AUTH" style="rounded=0;whiteSpace=wrap;html=1;" vertex="1" parent="1">
          <mxGeometry y="-240" width="120" height="60" as="geometry" />
        </mxCell>
        <mxCell id="yIb0rFLzXjiDQs9UU3_U-30" style="edgeStyle=orthogonalEdgeStyle;rounded=0;orthogonalLoop=1;jettySize=auto;html=1;" edge="1" parent="1" source="yIb0rFLzXjiDQs9UU3_U-28" target="yIb0rFLzXjiDQs9UU3_U-29">
          <mxGeometry relative="1" as="geometry" />
        </mxCell>
        <mxCell id="yIb0rFLzXjiDQs9UU3_U-28" value="Payment" style="rounded=0;whiteSpace=wrap;html=1;" vertex="1" parent="1">
          <mxGeometry y="-140" width="120" height="60" as="geometry" />
        </mxCell>
        <mxCell id="yIb0rFLzXjiDQs9UU3_U-29" value="DB&lt;div&gt;&lt;br&gt;&lt;/div&gt;" style="shape=cylinder3;whiteSpace=wrap;html=1;boundedLbl=1;backgroundOutline=1;size=15;" vertex="1" parent="1">
          <mxGeometry x="250" y="-155" width="60" height="90" as="geometry" />
        </mxCell>
        <mxCell id="yIb0rFLzXjiDQs9UU3_U-31" value="CRM" style="rounded=0;whiteSpace=wrap;html=1;" vertex="1" parent="1">
          <mxGeometry y="-35" width="120" height="60" as="geometry" />
        </mxCell>
        <mxCell id="yIb0rFLzXjiDQs9UU3_U-32" style="edgeStyle=orthogonalEdgeStyle;rounded=0;orthogonalLoop=1;jettySize=auto;html=1;" edge="1" source="yIb0rFLzXjiDQs9UU3_U-31" target="yIb0rFLzXjiDQs9UU3_U-33" parent="1">
          <mxGeometry relative="1" as="geometry" />
        </mxCell>
        <mxCell id="yIb0rFLzXjiDQs9UU3_U-33" value="DB&lt;div&gt;&lt;br&gt;&lt;/div&gt;" style="shape=cylinder3;whiteSpace=wrap;html=1;boundedLbl=1;backgroundOutline=1;size=15;" vertex="1" parent="1">
          <mxGeometry x="250" y="-50" width="60" height="90" as="geometry" />
        </mxCell>
        <mxCell id="yIb0rFLzXjiDQs9UU3_U-34" value="Delivery" style="rounded=0;whiteSpace=wrap;html=1;" vertex="1" parent="1">
          <mxGeometry y="77" width="120" height="60" as="geometry" />
        </mxCell>
        <mxCell id="yIb0rFLzXjiDQs9UU3_U-35" style="edgeStyle=orthogonalEdgeStyle;rounded=0;orthogonalLoop=1;jettySize=auto;html=1;" edge="1" source="yIb0rFLzXjiDQs9UU3_U-34" target="yIb0rFLzXjiDQs9UU3_U-36" parent="1">
          <mxGeometry relative="1" as="geometry" />
        </mxCell>
        <mxCell id="yIb0rFLzXjiDQs9UU3_U-36" value="DB&lt;div&gt;&lt;br&gt;&lt;/div&gt;" style="shape=cylinder3;whiteSpace=wrap;html=1;boundedLbl=1;backgroundOutline=1;size=15;" vertex="1" parent="1">
          <mxGeometry x="250" y="62" width="60" height="90" as="geometry" />
        </mxCell>
        <mxCell id="yIb0rFLzXjiDQs9UU3_U-39" style="edgeStyle=orthogonalEdgeStyle;rounded=0;orthogonalLoop=1;jettySize=auto;html=1;entryX=0;entryY=0.25;entryDx=0;entryDy=0;" edge="1" parent="1" source="yIb0rFLzXjiDQs9UU3_U-37" target="yIb0rFLzXjiDQs9UU3_U-21">
          <mxGeometry relative="1" as="geometry" />
        </mxCell>
        <mxCell id="yIb0rFLzXjiDQs9UU3_U-40" style="edgeStyle=orthogonalEdgeStyle;rounded=0;orthogonalLoop=1;jettySize=auto;html=1;" edge="1" parent="1" source="yIb0rFLzXjiDQs9UU3_U-37" target="yIb0rFLzXjiDQs9UU3_U-28">
          <mxGeometry relative="1" as="geometry" />
        </mxCell>
        <mxCell id="yIb0rFLzXjiDQs9UU3_U-42" style="edgeStyle=orthogonalEdgeStyle;rounded=0;orthogonalLoop=1;jettySize=auto;html=1;entryX=0;entryY=0.75;entryDx=0;entryDy=0;" edge="1" parent="1" source="yIb0rFLzXjiDQs9UU3_U-37" target="yIb0rFLzXjiDQs9UU3_U-31">
          <mxGeometry relative="1" as="geometry" />
        </mxCell>
        <mxCell id="yIb0rFLzXjiDQs9UU3_U-43" style="edgeStyle=orthogonalEdgeStyle;rounded=0;orthogonalLoop=1;jettySize=auto;html=1;entryX=0;entryY=0.75;entryDx=0;entryDy=0;" edge="1" parent="1" source="yIb0rFLzXjiDQs9UU3_U-37" target="yIb0rFLzXjiDQs9UU3_U-34">
          <mxGeometry relative="1" as="geometry" />
        </mxCell>
        <mxCell id="yIb0rFLzXjiDQs9UU3_U-54" style="edgeStyle=orthogonalEdgeStyle;rounded=0;orthogonalLoop=1;jettySize=auto;html=1;" edge="1" parent="1" source="yIb0rFLzXjiDQs9UU3_U-37" target="yIb0rFLzXjiDQs9UU3_U-44">
          <mxGeometry relative="1" as="geometry" />
        </mxCell>
        <mxCell id="yIb0rFLzXjiDQs9UU3_U-37" value="GETAWAY" style="rounded=0;whiteSpace=wrap;html=1;" vertex="1" parent="1">
          <mxGeometry x="-370" y="-155" width="120" height="60" as="geometry" />
        </mxCell>
        <mxCell id="yIb0rFLzXjiDQs9UU3_U-50" style="edgeStyle=orthogonalEdgeStyle;rounded=0;orthogonalLoop=1;jettySize=auto;html=1;" edge="1" parent="1" source="yIb0rFLzXjiDQs9UU3_U-44" target="yIb0rFLzXjiDQs9UU3_U-21">
          <mxGeometry relative="1" as="geometry">
            <Array as="points">
              <mxPoint x="-310" y="-270" />
              <mxPoint x="60" y="-270" />
            </Array>
          </mxGeometry>
        </mxCell>
        <mxCell id="yIb0rFLzXjiDQs9UU3_U-51" style="edgeStyle=orthogonalEdgeStyle;rounded=0;orthogonalLoop=1;jettySize=auto;html=1;" edge="1" parent="1" source="yIb0rFLzXjiDQs9UU3_U-44" target="yIb0rFLzXjiDQs9UU3_U-28">
          <mxGeometry relative="1" as="geometry">
            <Array as="points">
              <mxPoint x="-310" y="-70" />
              <mxPoint x="60" y="-70" />
            </Array>
          </mxGeometry>
        </mxCell>
        <mxCell id="yIb0rFLzXjiDQs9UU3_U-52" style="edgeStyle=orthogonalEdgeStyle;rounded=0;orthogonalLoop=1;jettySize=auto;html=1;" edge="1" parent="1" source="yIb0rFLzXjiDQs9UU3_U-44" target="yIb0rFLzXjiDQs9UU3_U-31">
          <mxGeometry relative="1" as="geometry">
            <Array as="points">
              <mxPoint x="-310" y="50" />
              <mxPoint x="60" y="50" />
            </Array>
          </mxGeometry>
        </mxCell>
        <mxCell id="yIb0rFLzXjiDQs9UU3_U-53" style="edgeStyle=orthogonalEdgeStyle;rounded=0;orthogonalLoop=1;jettySize=auto;html=1;" edge="1" parent="1" source="yIb0rFLzXjiDQs9UU3_U-44" target="yIb0rFLzXjiDQs9UU3_U-34">
          <mxGeometry relative="1" as="geometry">
            <Array as="points">
              <mxPoint x="-310" y="107" />
            </Array>
          </mxGeometry>
        </mxCell>
        <mxCell id="yIb0rFLzXjiDQs9UU3_U-44" value="GETAWAY BFF" style="rounded=0;whiteSpace=wrap;html=1;" vertex="1" parent="1">
          <mxGeometry x="-370" y="-20" width="120" height="60" as="geometry" />
        </mxCell>
      </root>
    </mxGraphModel>
  </diagram>
</mxfile>
